<svg width="49" height="49" viewBox="0 0 49 49" fill="none" xmlns="http://www.w3.org/2000/svg">
<path d="M44.4062 8.27832H4.59375C3.74678 8.27832 3.0625 8.9626 3.0625 9.80957V17.4658H45.9375V9.80957C45.9375 8.9626 45.2532 8.27832 44.4062 8.27832ZM3.0625 40.4346C3.0625 41.2815 3.74678 41.9658 4.59375 41.9658H44.4062C45.2532 41.9658 45.9375 41.2815 45.9375 40.4346V21.6768H3.0625V40.4346ZM30.7686 31.6299C30.7686 31.4193 30.9408 31.2471 31.1514 31.2471H39.0469C39.2574 31.2471 39.4297 31.4193 39.4297 31.6299V35.0752C39.4297 35.2857 39.2574 35.458 39.0469 35.458H31.1514C30.9408 35.458 30.7686 35.2857 30.7686 35.0752V31.6299Z" fill="white"/>
</svg>
