<svg width="44" height="37" viewBox="0 0 44 37" fill="none" xmlns="http://www.w3.org/2000/svg">
<path d="M23.375 5.38924C25.1735 3.49449 28.2755 2.95274 31.933 3.32124C35.3265 3.66224 38.8163 4.75949 41.25 5.77699V33.0652C38.7255 32.1027 35.4558 31.1622 32.2108 30.8377C29.2023 30.5325 25.9463 30.7305 23.375 32.1907V5.38924ZM22 2.90324C19.2912 0.573993 15.3643 0.227493 11.7893 0.584993C7.62575 1.00574 3.42375 2.43299 0.80575 3.62374C0.565535 3.73299 0.361832 3.90906 0.218958 4.13093C0.0760834 4.3528 7.30714e-05 4.6111 0 4.87499L0 35.125C6.36955e-05 35.3551 0.0578521 35.5814 0.168072 35.7834C0.278292 35.9853 0.43742 36.1564 0.63088 36.2809C0.82434 36.4054 1.04595 36.4793 1.2754 36.496C1.50486 36.5127 1.73483 36.4715 1.94425 36.3762C4.36975 35.2762 8.2775 33.9535 12.0643 33.5712C15.939 33.1807 19.1868 33.8105 20.9275 35.983C21.0563 36.1436 21.2196 36.2732 21.4052 36.3623C21.5909 36.4513 21.7941 36.4975 22 36.4975C22.2059 36.4975 22.4091 36.4513 22.5948 36.3623C22.7804 36.2732 22.9437 36.1436 23.0725 35.983C24.8133 33.8105 28.061 33.1807 31.933 33.5712C35.7225 33.9535 39.633 35.2762 42.0558 36.3762C42.2652 36.4715 42.4951 36.5127 42.7246 36.496C42.9541 36.4793 43.1757 36.4054 43.3691 36.2809C43.5626 36.1564 43.7217 35.9853 43.8319 35.7834C43.9421 35.5814 43.9999 35.3551 44 35.125V4.87499C43.9999 4.6111 43.9239 4.3528 43.781 4.13093C43.6382 3.90906 43.4345 3.73299 43.1942 3.62374C40.5762 2.43299 36.3743 1.00574 32.2108 0.584993C28.6358 0.224743 24.7088 0.573993 22 2.90324Z" fill="white"/>
</svg>
