<svg width="64" height="32" viewBox="0 0 64 32" fill="none" xmlns="http://www.w3.org/2000/svg">
<path d="M21.3983 15.4994H30.3324V28.1856C28.531 29.4142 26.4391 30.3571 24.0567 31.0143C21.6743 31.6714 19.3354 32 17.0402 32C13.7861 32 10.8662 31.3428 8.28039 30.0285C5.69458 28.6856 3.6608 26.8284 2.17905 24.4569C0.72635 22.0568 0 19.3424 0 16.3137C0 13.2851 0.72635 10.585 2.17905 8.21344C3.6608 5.81336 5.70911 3.95615 8.32397 2.64181C10.9679 1.29891 13.9459 0.627457 17.2581 0.627457C20.2506 0.627457 22.9236 1.12747 25.277 2.12751C27.6594 3.09897 29.6351 4.5276 31.204 6.41338L24.6233 12.1136C22.7057 9.9135 20.4249 8.81346 17.781 8.81346C15.5148 8.81346 13.7135 9.48491 12.377 10.8278C11.0405 12.1707 10.3723 13.9994 10.3723 16.3137C10.3723 18.571 11.026 20.3853 12.3334 21.7568C13.6699 23.1283 15.4422 23.814 17.6503 23.814C18.9577 23.814 20.207 23.5711 21.3983 23.0854V15.4994Z" fill="#283593"/>
<path d="M50.0823 32C46.8024 32 43.8474 31.3297 41.2175 29.9891C38.5877 28.6193 36.5192 26.725 35.0122 24.306C33.5348 21.8579 32.796 19.0893 32.796 16C32.796 12.9107 33.5348 10.1566 35.0122 7.7377C36.5192 5.28962 38.5877 3.39526 41.2175 2.05464C43.8474 0.684881 46.8024 0 50.0823 0C53.0963 0 55.7853 0.52459 58.1493 1.57377C60.5132 2.62295 62.4634 4.13843 64 6.12022L57.3957 11.9344C55.4751 9.54463 53.2145 8.34973 50.6142 8.34973C48.4276 8.34973 46.6694 9.04918 45.3397 10.4481C44.01 11.8179 43.3451 13.6685 43.3451 16C43.3451 18.3315 44.01 20.1967 45.3397 21.5956C46.6694 22.9654 48.4276 23.6503 50.6142 23.6503C53.2145 23.6503 55.4751 22.4554 57.3957 20.0656L64 25.8798C62.4634 27.8616 60.5132 29.377 58.1493 30.4262C55.7853 31.4754 53.0963 32 50.0823 32Z" fill="#0C1768"/>
</svg>
